<svg width="20" height="21" viewBox="0 0 20 21" fill="none" xmlns="http://www.w3.org/2000/svg">
<mask id="mask0_1666_1479" style="mask-type:alpha" maskUnits="userSpaceOnUse" x="0" y="0" width="20" height="21">
<rect y="0.5" width="20" height="20" fill="#D9D9D9"/>
</mask>
<g mask="url(#mask0_1666_1479)">
<path d="M10.0002 18.4193C8.59211 18.4193 7.44148 18.2173 6.54829 17.8134C5.65509 17.4097 5.2085 16.8878 5.2085 16.2478C5.2085 15.9518 5.31989 15.6735 5.54266 15.4128C5.76544 15.1521 6.07343 14.9283 6.46662 14.7414L7.45058 15.6341C7.27211 15.7056 7.08454 15.7948 6.88787 15.9016C6.69134 16.0085 6.55676 16.1212 6.48412 16.2397C6.6219 16.4887 7.0319 16.7059 7.71412 16.8911C8.3962 17.0766 9.15822 17.1693 10.0002 17.1693C10.8367 17.1693 11.5995 17.0766 12.2887 16.8911C12.9777 16.7059 13.3912 16.4887 13.5291 16.2397C13.4586 16.1126 13.3162 15.9957 13.102 15.8889C12.8877 15.782 12.6845 15.6928 12.4922 15.6211L13.4633 14.7157C13.8895 14.9113 14.2175 15.1394 14.4472 15.4001C14.677 15.6608 14.7918 15.9434 14.7918 16.2478C14.7918 16.8878 14.3452 17.4097 13.452 17.8134C12.5588 18.2173 11.4082 18.4193 10.0002 18.4193ZM10.0002 15.9193C8.18072 14.5602 6.82308 13.2402 5.92725 11.9593C5.03141 10.6783 4.5835 9.42247 4.5835 8.19177C4.5835 7.26441 4.74725 6.45191 5.07475 5.75427C5.40225 5.05663 5.82502 4.47247 6.34308 4.00177C6.86127 3.53122 7.44225 3.1776 8.086 2.94094C8.72961 2.70427 9.36766 2.58594 10.0002 2.58594C10.6327 2.58594 11.2707 2.70427 11.9143 2.94094C12.5581 3.1776 13.1391 3.53122 13.6572 4.00177C14.1753 4.47247 14.5981 5.05663 14.9256 5.75427C15.2531 6.45191 15.4168 7.26441 15.4168 8.19177C15.4168 9.42247 14.9689 10.6783 14.0731 11.9593C13.1772 13.2402 11.8196 14.5602 10.0002 15.9193ZM10.0002 9.58115C10.4157 9.58115 10.7706 9.43531 11.065 9.14365C11.3594 8.85198 11.5066 8.49566 11.5066 8.07469C11.5066 7.65913 11.3594 7.3042 11.065 7.0099C10.7706 6.71545 10.4157 6.56823 10.0002 6.56823C9.58988 6.56823 9.23627 6.71545 8.93933 7.0099C8.64225 7.3042 8.4937 7.65913 8.4937 8.07469C8.4937 8.49566 8.64225 8.85198 8.93933 9.14365C9.23627 9.43531 9.58988 9.58115 10.0002 9.58115Z" fill="black" fill-opacity="0.5"/>
</g>
</svg>
