<svg xmlns="http://www.w3.org/2000/svg" width="661" height="463" fill="none"><g clip-path="url(#a)"><mask id="b" width="661" height="463" x="0" y="0" maskUnits="userSpaceOnUse" style="mask-type:luminance"><path fill="#fff" d="M660.253 0H.747v463h659.506z"/></mask><g fill="#000" mask="url(#b)"><path d="M.747 351.482v-.615h38.209v7.166h-.615v-.302a.323.323 0 0 1-.078-.246c-.549-2.101-1.31-3.353-2.294-3.857a11.1 11.1 0 0 0-4.474-.704H11.932v26.897h18.176a8.8 8.8 0 0 0 3.188-.38 1.78 1.78 0 0 0 1.007-1.587h.615v5.847h-.615c0-1.409-.895-2.113-2.696-2.113H11.932v24.326c0 2.292.347 3.767 1.052 4.472a5.1 5.1 0 0 0 3.59.994v.627H.747v-.627q2.785 0 3.523-1.117c.544-.914.8-1.969.739-3.03v-50.24a7.7 7.7 0 0 0-.906-4.281c-.57-.816-1.712-1.23-3.356-1.23M84.706 349.915q12.695 0 20.782 7.825a26 26 0 0 1 8.076 19.497q0 15.036-9.34 25.321t-24.809 10.274q-12.55 0-20.536-8.284a27.65 27.65 0 0 1-7.998-19.888 38 38 0 0 1 3.848-16.087 32.7 32.7 0 0 1 11.61-13.415 32.2 32.2 0 0 1 18.367-5.243m-.246 59.675a26.15 26.15 0 0 0 21.844-12.677 23.74 23.74 0 0 0 3.49-12.186 29.05 29.05 0 0 0-4.698-16.12 33.47 33.47 0 0 0-12.17-11.314q-7.482-4.091-13.835-4.103a23.32 23.32 0 0 0-16.297 6.842 22.36 22.36 0 0 0-7.327 16.993 32.84 32.84 0 0 0 8.949 22.783q8.948 9.827 20.055 9.827M128.021 351.482v-.615h17.147q6.51 0 9.43.291c2.094.244 4.12.897 5.961 1.923a11.2 11.2 0 0 1 4.609 4.471 13.94 13.94 0 0 1 1.555 6.864 15.86 15.86 0 0 1-2.763 8.854 22.64 22.64 0 0 1-7.83 7.11l4.262 6.63q1.398 2.482 7.404 10.888 6.007 8.407 9.284 10.252a12.94 12.94 0 0 0 6.353 1.844 14 14 0 0 0 6.969-2.37l.246.828q-4.922 4.08-12.774 4.069a13.65 13.65 0 0 1-9.015-3.142q-3.77-3.141-13.12-17.216a.3.3 0 0 1-.057-.075.3.3 0 0 1-.022-.092l-6.073-9.436-5.38.168h-4.888v23.298a8.34 8.34 0 0 0 .727 4.035c.492.816 1.666 1.219 3.534 1.219v.626h-15.559v-.626c1.947-.078 3.155-.492 3.636-1.241a9.5 9.5 0 0 0 .716-4.55v-48.496a10.6 10.6 0 0 0-.616-3.912c-.413-1.04-1.655-1.565-3.736-1.599m11.32.995v28.641h6.331q7.472 0 11.084-3.566a12.55 12.55 0 0 0 3.613-9.368 18.23 18.23 0 0 0-3.545-10.665q-3.558-5.031-12.517-5.042zM236.761 348.776l-2.864 7.378h-.615c.105-.59.146-1.19.123-1.789a1.12 1.12 0 0 0-.671-1.218 6.2 6.2 0 0 0-2.148-.268H214.86v52.218a12.5 12.5 0 0 0 .514 4.404 2.48 2.48 0 0 0 1.387 1.487 9.2 9.2 0 0 0 2.852.313v.626h-16.352v-.626c2.047-.134 3.355-.536 3.847-1.196.493-.659.783-2.046.783-4.147v-53.113h-15.1a10.3 10.3 0 0 0-2.986.268c-.459.179-.694.626-.694 1.342.039.566.148 1.126.325 1.666h-.616l-2.863-7.379h.615a3.6 3.6 0 0 0 1.454 1.8 9.3 9.3 0 0 0 3.087.313h40.055c1.15.047 2.301-.058 3.423-.313a2.45 2.45 0 0 0 1.532-1.8zM248.347 351.571v-.704h37.962v8.407h-.615c-.827-3.119-1.51-4.952-2.069-5.511s-1.935-.828-4.127-.828h-19.921v27.39h18.489a7.17 7.17 0 0 0 3.479-.515 1.8 1.8 0 0 0 .783-1.509h.615v5.757h-.615a2.11 2.11 0 0 0-.962-1.621 6.6 6.6 0 0 0-2.808-.413h-19.015v18.859a17.6 17.6 0 0 0 .772 6.149 3.77 3.77 0 0 0 2.483 2.37c1.685.369 3.41.527 5.134.469h10.648a35.6 35.6 0 0 0 6.488-.346 4.83 4.83 0 0 0 2.394-1.398c.659-.704 1.118-2.236 1.521-4.594h.615v8.373h-41.251v-.626a6.7 6.7 0 0 0 3.176-.805c.716-.458 1.119-1.632 1.119-3.544v-49.278a13.6 13.6 0 0 0-.571-4.718c-.391-.905-1.621-1.364-3.691-1.364M387.062 353.969l2.237 6.462h-.593a28.2 28.2 0 0 0-9.413-6.555 28.2 28.2 0 0 0-11.246-2.265q-12.304 0-19.932 7.411a24.176 24.176 0 0 0-7.606 17.943 41 41 0 0 0 3.355 14.958 31.66 31.66 0 0 0 10.727 13.918 28.68 28.68 0 0 0 17.661 5.456 41.4 41.4 0 0 0 13.356-2.236c4.351-1.476 7.606-3.455 9.731-5.948l.537.168-4.228 6.551q-10.257 2.236-13.3 2.65a63 63 0 0 1-8.187.413q-19.015 0-27.158-8.887a30.36 30.36 0 0 1-8.176-21.241 33.14 33.14 0 0 1 4.205-16.098 30.4 30.4 0 0 1 12.114-12.252 39.73 39.73 0 0 1 26.844-3.522c2.096.5 4.156 1.142 6.164 1.923l2.706 1.04q.09.026.168.078M405.955 411.927v-.626c1.879 0 3.109-.358 3.668-1.118a6.13 6.13 0 0 0 .839-3.689v-49.86a8.35 8.35 0 0 0-.66-3.834c-.436-.783-1.744-1.207-3.937-1.263v-.615h16.197v.615a6.3 6.3 0 0 0-3.155.581 2.8 2.8 0 0 0-1.185 1.375 13.2 13.2 0 0 0-.291 3.555v42.85c0 3.678.872 6.261 2.617 7.77s4.743 2.236 8.948 2.236h7.371q5.313 0 7.83-2.65t2.763-9.983h.615v14.667zM477.81 350.867v.626a6.04 6.04 0 0 0-2.64.369 2.39 2.39 0 0 0-1.722 1.453 22 22 0 0 0-.269 4.472v46.897a19 19 0 0 0 .313 4.651 2.7 2.7 0 0 0 1.186 1.408c.977.457 2.057.65 3.132.559v.626h-16.107v-.626c2.025 0 3.277-.391 3.77-1.118.492-.726.738-2.582.738-5.366v-46.461c0-2.895-.269-4.796-.817-5.69q-.822-1.341-3.691-1.174v-.626zM541.846 350.867h11.677v.626a5.25 5.25 0 0 0-3.68 1.118c-.693.704-1.029 2.236-1.029 4.472v55.572l-48.175-51.849v45.13c-.039 1.076.07 2.152.324 3.197.142.567.478 1.066.951 1.409.983.398 2.02.647 3.076.738v.626h-11.61v-.626c2.08 0 3.355-.369 3.881-1.118s.761-2.527.761-5.344v-41.285a22.4 22.4 0 0 0-1.499-8.854q-1.488-3.432-6.913-3.186v-.626h11.353l45.267 48.708v-43.073c0-2.326-.414-3.734-1.23-4.249a5.84 5.84 0 0 0-3.154-.76zM583.735 350.867v.626a6 6 0 0 0-2.64.369 2.38 2.38 0 0 0-1.723 1.453 22 22 0 0 0-.268 4.472v46.897a20 20 0 0 0 .302 4.651 2.78 2.78 0 0 0 1.197 1.408c.977.457 2.057.65 3.132.559v.626h-16.107v-.626c2.013 0 3.277-.391 3.769-1.118.493-.726.739-2.582.739-5.366v-46.461c0-2.895-.28-4.796-.828-5.69s-1.767-1.286-3.68-1.174v-.626zM650.233 353.917l2.237 6.461h-.604a28.17 28.17 0 0 0-20.648-8.82q-12.304 0-19.932 7.412a24.16 24.16 0 0 0-7.607 17.942 41 41 0 0 0 3.356 14.958 31.66 31.66 0 0 0 10.727 13.918 28.65 28.65 0 0 0 17.661 5.456 41.3 41.3 0 0 0 13.344-2.236q6.544-2.236 9.743-5.947l.537.167-4.228 6.551q-10.246 2.236-13.3 2.65a63 63 0 0 1-8.187.413q-19.016 0-27.158-8.887a30.37 30.37 0 0 1-8.177-21.241 33.15 33.15 0 0 1 4.206-16.098 30.37 30.37 0 0 1 12.114-12.252 39.7 39.7 0 0 1 26.844-3.522 48 48 0 0 1 6.175 1.923l2.706 1.04q.09.025.168.078M23.711 459.981H1.71v-1.811h9.865v-5.534h-7.83v-1.699H7.46v-7.893H3.656v-1.755h17.897v1.755H17.75v7.893h3.803v1.699h-7.897v5.534h10.067zm-7.997-16.937h-6.14v7.893h6.14zM151.449 459.942h-22.002v-1.788h22.002zm-2.774-11.894h-14.362v3.946h14.921v1.699H132.21v-7.378h14.373v-3.779h-14.429v-1.755h16.521zM267.076 443.593h-6.912v4.717h5.805v1.699h-5.805v5.4a42.6 42.6 0 0 0 8.154-.648l.19 1.732a42.3 42.3 0 0 1-8.87.649h-1.51v-15.249h8.948zm5.761 18.132h-2.025v-11.883h-3.546v-1.755h3.546v-8.541h2.025zm4.921 1.241H275.7v-24.013h2.058zM404.041 441.939a32.2 32.2 0 0 1-.57 6.864h3.355v1.733h-21.867v-1.721h16.375q.321-1.54.459-3.108l-14.384.615-.269-1.7 14.765-.458v-2.314h-14.15v-1.733h16.331zm.19 16.456H389.69v2.538h15.391v1.699h-17.505v-5.858h14.541v-2.236h-14.541v-1.654h16.711zM525.213 449.73h-8.948v5.679a70.3 70.3 0 0 0 11.834-.872l.224 1.789a73.6 73.6 0 0 1-12.226.86h-2.002v-9.189h9.004v-5.053h-9.06v-1.755h11.185zm7.304 13.292h-2.114v-24.069h2.114zM644.069 449.115a57.7 57.7 0 0 0 11.354-1.118l.324 1.778a61.6 61.6 0 0 1-11.868 1.118h-1.957v-10.587h2.147zM660.255 463h-2.103v-7.155h-14.06v-1.789h16.163zm0-10.162h-2.103v-13.885h2.103zM308.826 72.603a20.5 20.5 0 0 1-9.295 2.94 21.15 21.15 0 0 1-8.489-1.263 26.2 26.2 0 0 1-7.237-4.114 32.3 32.3 0 0 1-5.403-5.366 38 38 0 0 1-8.366-21.374 41.13 41.13 0 0 1 4.116-20.995 40.7 40.7 0 0 1 14.149-15.908A38.7 38.7 0 0 1 309.71.005q12.057-.201 25.905 7.222 13.848 7.424 27.963 25.712a182.5 182.5 0 0 1 15.962 24.729q7.349 13.56 14.451 27.635a1098 1098 0 0 0 14.373 27.523 178.3 178.3 0 0 0 15.592 24.237q10.437 13.516 20.536 20.737 10.101 7.223 18.792 9.738a31.33 31.33 0 0 0 15.491 1.028 20.6 20.6 0 0 0 10.548-5.344 14.15 14.15 0 0 0 4.116-9.267 15.7 15.7 0 0 0-3.747-10.71l1.812-1.71q6.208 8.037 7.181 15.561a19.36 19.36 0 0 1-2.237 12.856 17.6 17.6 0 0 1-10.145 7.513q-6.912 2.235-16.431-.604t-21.174-11.403q-11.621-8.564-24.026-24.594a202 202 0 0 1-15.603-23.477 1080 1080 0 0 1-13.96-25.175 1258 1258 0 0 0-13.746-24.919 191 191 0 0 0-14.921-22.57q-13.355-17.24-26.42-24.483t-24.518-7.658a38.05 38.05 0 0 0-20.469 4.684 40.6 40.6 0 0 0-14.183 12.823 33.2 33.2 0 0 0-5.693 16.769 23.86 23.86 0 0 0 5.223 16.422 31 31 0 0 0 5.078 5.165 23.1 23.1 0 0 0 6.711 3.767 20.7 20.7 0 0 0 7.696 1.252c2.875-.13 5.675-.95 8.165-2.392z"/><path d="M385.252 164.069a15.66 15.66 0 0 0-12.751 5.936 27 27 0 0 0-2.316 3.354 107 107 0 0 1-16.632.235c-1.667-.101-3.356-.257-5.067-.369 3.076-8.809 6.23-17.361 9.53-25.366a180 180 0 0 1 14.977-29.066 61.75 61.75 0 0 1 19.686-19.798l-.995-1.487a78.9 78.9 0 0 0-28.221 19.675 146 146 0 0 0-20.447 28.943 254 254 0 0 0-12.001 25.947 59.7 59.7 0 0 0-16.599 1.029 20.73 20.73 0 0 0-12.628 7.915q-4.475 6.07-2.718 19.183l2.472-.246q-2.238-12.13 2.237-17.573 4.474-5.445 12.751-6.931a73.6 73.6 0 0 1 13.422-.85c-.794 2.035-1.689 3.98-2.449 6.048a10241 10241 0 0 0-13.244 36.388q-6.532 18.055-13.747 34.656a134.5 134.5 0 0 1-17.091 29.334 77 77 0 0 1-23.399 20.291q-13.49 7.545-32.314 7.546-16.589 0-28.478-6.059a54.34 54.34 0 0 1-19.194-15.841 61.6 61.6 0 0 1-10.402-22.359 81.8 81.8 0 0 1-2.103-25.712 86 86 0 0 1 6.062-25.712 76.5 76.5 0 0 1 13.747-22.359 67.5 67.5 0 0 1 21.051-15.841 62.7 62.7 0 0 1 27.963-6.07 43.1 43.1 0 0 1 18.702 3.722 31.2 31.2 0 0 1 12.124 9.648 24.84 24.84 0 0 1 4.832 13.125 27.64 27.64 0 0 1-2.818 13.962 34.9 34.9 0 0 1-11.018 12.622 54.9 54.9 0 0 1-19.563 8.653l.503 2.481q15.1-3.722 24.384-10.15t13.523-13.863a24.2 24.2 0 0 0-2.852-28.831 39.7 39.7 0 0 0-14.854-10.061q-9.541-3.946-22.907-3.958-18.825 0-33.679 6.194a78.72 78.72 0 0 0-41.978 39.719 82 82 0 0 0-7.428 26.607 68.9 68.9 0 0 0 2.472 26.607 60.94 60.94 0 0 0 12.886 23.264q9.026 10.273 23.769 16.456t35.356 6.226q22.539 0 39.003-7.546a93.8 93.8 0 0 0 28.724-20.301 128.4 128.4 0 0 0 21.051-29.446 318 318 0 0 0 15.67-34.924 860 860 0 0 0 12.998-36.635c.816-2.481 1.677-4.796 2.516-7.221 2.953.122 5.996.346 8.881.413a101 101 0 0 0 12.595-.514 26.6 26.6 0 0 0-2.562 8.44 26.2 26.2 0 0 0 2.719 15.215q3.724 7.557 12.874 10.766l1.241-1.979a14.06 14.06 0 0 1-7.919-9.894 31.5 31.5 0 0 1-.123-13.415 44 44 0 0 1 3.736-10.933 15.43 15.43 0 0 0 8.266-6.886q.502-.738-.369-1.61a2.57 2.57 0 0 0-1.857-.861m-4.306 6.16c1.42-2.236 2.785-3.432 4.06-3.689a15.2 15.2 0 0 1-4.06 3.689"/></g></g><defs><clipPath id="a"><path fill="#fff" d="M.747 0h659.506v463H.747z"/></clipPath></defs></svg>